<svg id="Слой_2" data-name="Слой 2" xmlns="http://www.w3.org/2000/svg" viewBox="0 0 1095.24 777.58"><defs><style>.cls-1{fill:#fff;}</style></defs><title>logo2</title><path class="cls-1" d="M352.38,903l128.67-35.82-50.5-3.68S507,850,531.55,842.08C564,831.66,625.44,801,654.61,783.38c62.64-37.86,134.56-89.82,194.94-99.88,67.06-11.18,178-2,249.26,22.07,15.66-1.92,31.08-3.39,43.74-4.07,11.88-.64,15-15,15-15h31c8.58-16.26,73.72-30,92-30,39.87,0,73.31,25.45,82.49,60.52,4.47,11.39,5.44,21.1,28.51,36.48,33,22,54.85,25,56,33,1,7-7.91,14.43-19,14-38.67-1.52-106.17,9.5-170.91,5.74-25-1.45-59.6-5.35-100.09-2.74l-11.38.73c-15.28,16.7-38.58,33.25-68,48.41,10.62,32.82-5.81,69.69-5.81,69.69s14,28,16.67,58.67c5.33,62,7.17,141,5.33,188-1.38,35.08-11,140-11,140-9.71,1.83-17.67-35.33-17.67-35.33l-9.33,40c-22.85-.19-19.33-89.34-19.33-89.34l-16,64c-19.74.29-21.34-76-21.34-76l-14,30c-16.37-1.65-15.33-64-15.33-64L961.05,1201c-25.34-16.67-19-68-19-68l-7.67,14.33c-6.88.86-16-17-16-17l6,79.34c-21.26,4.44-28.67-82-28.67-82l2.31,90.68c-22.38,0-31-103.35-31-103.35l-4.67,83.33c-21.1,2.88-27.33-80.66-27.33-80.66l-4.67,40.66c-21.53,2-24.2-83.51-24.2-83.51l-12.47,40.85c-17.46-.4-17.7-68.57-17.7-68.57l-9.63,20.57c-12.42-.78-15.33-47.34-15.33-47.34s-7.74-1.34-13.51-10.66c-5.41-8.76-3.16-32-3.16-32s-8.94-1-10.33-7.5c-1.35-6.28.85-29.35.85-29.35l-6.35-2,2.29-10.78c-23.56.63-45.48-1.45-65.21-1.45-23.37,0-66.17-2.69-87.92-6.27C532.3,914.5,502.38,900,502.38,900l-150,17,38.67-17Z" transform="translate(-352.38 -656.5)"/><path class="cls-1" d="M1447.62,1425.52s-130.95,9.35-174.67,8.5c-48.67-.94-145.32-16.11-194-17-83.84-1.54-251.14,17.92-335,17-58.65-.64-175.34-16.46-234-17-39.44-.37-157.57,8.5-157.57,8.5v-30s118.13-8.87,157.57-8.5c58.66.54,175.35,16.37,234,17,83.36.9,249.66-18.54,333-17,48.43.89,144.58,16,193,17,44.46.89,177.67-8.5,177.67-8.5Z" transform="translate(-352.38 -656.5)"/><path class="cls-1" d="M1447.62,1352.26s-130.95,9.35-174.67,8.5c-48.67-.94-145.32-16.11-194-17-83.84-1.54-251.14,17.93-335,17-58.65-.64-175.34-16.46-234-17-39.44-.36-157.57,8.51-157.57,8.51v-30s118.13-8.87,157.57-8.51c58.66.55,175.35,16.38,234,17,83.36.9,249.66-18.54,333-17,48.43.9,144.58,16,193,17,44.46.89,177.67-8.5,177.67-8.5Z" transform="translate(-352.38 -656.5)"/></svg>